HIERARCHY
ROOT Hips
{
	OFFSET -0.179506 -22.333345 2.821913
	CHANNELS 6 Xposition Yposition Zposition Zrotation Yrotation Xrotation 
	JOINT LeftUpLeg
	{
		OFFSET 6.951974 -9.140623 -0.681533
		CHANNELS 3 Zrotation Yrotation Xrotation
		JOINT LeftLeg
		{
			OFFSET 3.427654 -37.519855 -0.449580
			CHANNELS 3 Zrotation Yrotation Xrotation
			JOINT LeftFoot
			{
				OFFSET -1.359570 -39.796059 -4.369333
				CHANNELS 3 Zrotation Yrotation Xrotation
				JOINT LeftToe
				{
					OFFSET 2.635814 -5.579078 11.928840
					CHANNELS 3 Zrotation Yrotation Xrotation
					End Site
					{
						OFFSET 0.000000 0.000000 0.000000
					}
				}
			}
		}
	}
	JOINT RightUpLeg
	{
		OFFSET -6.767048 -9.052170 -0.431982
		CHANNELS 3 Zrotation Yrotation Xrotation
		JOINT RightLeg
		{
			OFFSET -3.829005 -38.256897 -0.885003
			CHANNELS 3 Zrotation Yrotation Xrotation
			JOINT RightFoot
			{
				OFFSET 1.577377 -39.841461 -4.231180
				CHANNELS 3 Zrotation Yrotation Xrotation
				JOINT RightToe
				{
					OFFSET -2.537174 -4.814398 12.334795
					CHANNELS 3 Zrotation Yrotation Xrotation
					End Site
					{
						OFFSET 0.000000 0.000000 0.000000
					}
				}
			}
		}
	}
	JOINT Spine
	{
		OFFSET -0.253288 10.896323 -2.669631
		CHANNELS 3 Zrotation Yrotation Xrotation
		JOINT Spine1
		{
			OFFSET 0.548704 13.518043 0.109247
			CHANNELS 3 Zrotation Yrotation Xrotation
			JOINT Spine2
			{
				OFFSET 0.145701 5.292222 2.542457
				CHANNELS 3 Zrotation Yrotation Xrotation
				JOINT Neck
				{
					OFFSET -0.277840 21.387037 -4.285703
					CHANNELS 3 Zrotation Yrotation Xrotation
					JOINT Head
					{
						OFFSET 0.515184 6.496960 5.134897
						CHANNELS 3 Zrotation Yrotation Xrotation
						End Site
						{
							OFFSET 0.000000 0.000000 0.000000
						}
					}
				}
				JOINT LeftShoulder
				{
					OFFSET 7.884473 12.174932 -3.408961
					CHANNELS 3 Zrotation Yrotation Xrotation
					JOINT LeftArm
					{
						OFFSET 9.097692 3.046888 -0.886815
						CHANNELS 3 Zrotation Yrotation Xrotation
						JOINT LeftForeArm
						{
							OFFSET 25.961220 -1.277207 -2.745643
							CHANNELS 3 Zrotation Yrotation Xrotation
							JOINT LeftHand
							{
								OFFSET 24.923361 0.898606 -0.117091
								CHANNELS 3 Zrotation Yrotation Xrotation
								End Site
								{
									OFFSET 0.000000 0.000000 0.000000
								}
							}
						}
					}
				}
				JOINT RightShoulder
				{
					OFFSET -8.175920 11.883285 -3.861528
					CHANNELS 3 Zrotation Yrotation Xrotation
					JOINT RightArm
					{
						OFFSET -9.601238 3.255117 -0.914307
						CHANNELS 3 Zrotation Yrotation Xrotation
						JOINT RightForeArm
						{
							OFFSET -25.374195 -1.332924 -2.140099
							CHANNELS 3 Zrotation Yrotation Xrotation
							JOINT RightHand
							{
								OFFSET -25.529810 0.777228 -0.555919
								CHANNELS 3 Zrotation Yrotation Xrotation
								End Site
								{
									OFFSET 0.000000 0.000000 0.000000
								}
							}
						}
					}
				}
			}
		}
	}
}
MOTION
Frames: 10
Frame Time: 0.033333
95.123672 66.488083 88.570015 148.824174 13.907338 94.675544 6.796583 -1.090867 32.399015 5.760036 -12.605631 -5.637954 -1.438963 11.741647 -20.535503 nan nan nan 7.744047 12.337684 -33.894750 5.785742 -12.839584 17.376332 6.913723 -3.178010 -2.683867 nan nan nan 2.129288 -12.356759 6.623049 10.597554 -4.310545 3.825925 8.054985 -6.669255 -5.340825 7.452267 -1.354756 -2.159883 6.036303 -2.348984 -0.741721 -18.584308 -6.489120 8.944526 -66.455518 -27.182842 12.284645 92.520331 -52.433913 -68.627525 0.313542 -24.685070 -21.278501 20.141868 -1.683569 1.893480 55.516630 -0.549039 5.318531 -19.797146 11.974650 2.757417 24.935554 -1.719452 -1.106676 
96.140495 67.642586 88.364128 148.407510 13.808214 94.726952 6.751955 -0.998016 31.945112 4.798568 -12.082300 -3.146728 -1.707277 11.757855 -20.326244 nan nan nan 7.855554 12.326919 -33.755911 5.656871 -13.550520 18.303062 7.139962 -3.208260 -1.089974 nan nan nan 2.525903 -12.397471 6.269013 10.527387 -4.284098 3.816530 7.892094 -6.494158 -5.537981 6.961778 -1.426620 -1.960004 5.529064 -1.805760 -0.954291 -19.013699 -6.178881 9.401214 -68.564907 -25.151426 12.866830 89.394996 -52.354319 -64.677233 -0.070468 -23.662618 -21.122650 20.064709 -1.556385 1.961172 55.738587 -0.270127 4.987262 -19.917954 11.253387 2.698513 25.134263 -1.938717 -1.906219 
97.159622 68.810051 88.172653 147.948747 13.615806 94.637540 6.792539 -0.866242 31.301329 3.552994 -11.583739 -0.109263 -2.074661 11.745197 -19.978710 nan nan nan 7.855622 12.276117 -33.715281 5.707548 -13.947317 19.455008 6.476613 -3.589378 -0.235140 nan nan nan 2.799198 -12.404677 6.198554 10.455857 -4.201999 3.607098 7.727155 -6.285357 -5.647608 6.416778 -1.379024 -1.938313 5.086912 -1.416299 -1.129439 -19.392005 -5.742668 9.795129 -70.172388 -23.237824 12.937539 85.256604 -52.758164 -60.300598 -1.792209 -23.104087 -21.517800 20.155196 -1.468953 2.190538 55.809773 0.039918 4.551923 -20.142746 10.917232 2.383745 25.670207 -2.085082 -2.943807 
98.190819 69.971268 87.985344 147.310066 13.315941 94.360000 6.740941 -0.698321 30.468417 2.020852 -11.206839 3.528508 -2.154285 12.047461 -19.205550 nan nan nan 7.797637 12.293551 -33.651736 5.983749 -13.591066 20.855947 5.810661 -4.497517 0.136806 nan nan nan 2.792724 -12.300975 6.175521 10.434376 -3.901293 3.447290 7.550981 -6.068217 -5.422375 5.889293 -1.428619 -2.486957 4.531403 -0.912093 -0.959948 -19.638808 -5.281443 10.091117 -71.651046 -21.524463 13.458847 80.377673 -52.933731 -56.009341 0.839083 -21.321640 -22.301785 20.205497 -1.393641 2.231300 55.868602 0.282013 4.716077 -20.188847 10.700858 1.796744 25.093163 -2.622945 -3.106410 
99.190018 71.117432 87.816971 146.625120 12.919696 93.953332 6.493773 -0.644794 29.225624 0.362664 -10.393643 7.988385 -1.902129 12.238143 -17.982122 nan nan nan 7.694921 12.199364 -33.442131 6.281852 -13.302424 22.333640 5.043784 -5.385601 0.687996 nan nan nan 2.649204 -12.219151 6.433757 10.400694 -3.510856 3.192815 7.412180 -5.789666 -5.173170 5.312382 -1.591214 -2.892706 3.876584 -0.230893 -0.967758 -19.790698 -4.579943 10.279491 -72.772181 -20.368640 13.918676 73.925692 -52.994467 -50.996274 0.143452 -20.054611 -24.495053 20.126037 -1.421414 2.339488 55.929986 0.856193 5.403330 -20.114708 10.231821 1.288837 24.775117 -2.864695 -3.248468 
100.154343 72.258995 87.660309 146.063515 12.472850 93.414398 6.279639 -0.584288 27.646874 -1.265025 -9.536813 13.070887 -1.521040 12.234356 -16.533373 nan nan nan 7.579337 11.871819 -32.980690 6.662463 -13.093505 23.822949 4.122928 -5.778626 1.061203 nan nan nan 2.530294 -12.010415 7.067007 10.314808 -3.239243 2.777154 7.207294 -5.431140 -4.947437 4.544497 -1.897227 -2.988808 3.493153 0.431054 -1.785333 -19.854180 -3.678792 10.228867 -73.284882 -19.501545 13.948604 66.008737 -53.100554 -45.159374 -0.876407 -18.688120 -27.735000 20.114290 -1.518757 2.289822 55.962526 1.351913 6.111989 -20.005847 9.936082 0.738815 23.984486 -3.277909 -3.357531 
101.093086 73.404167 87.511765 145.551908 12.051364 92.625253 6.145464 -0.508241 26.093285 -2.908076 -8.924988 18.511403 -1.119499 11.902722 -15.570890 nan nan nan 7.560122 11.349295 -32.139857 7.348126 -12.570177 25.475153 3.164403 -5.561280 0.384648 nan nan nan 2.502131 -11.628987 8.089081 10.120680 -3.035570 2.189764 6.970475 -5.011949 -4.641341 3.615517 -2.307453 -3.175435 3.319990 0.938749 -2.567066 -19.807726 -2.816121 9.965721 -73.837047 -18.960378 13.632065 57.299640 -52.753711 -39.500217 0.291618 -16.942136 -30.259844 19.947155 -1.550262 2.043587 56.152410 1.557633 6.658659 -19.685992 9.959109 0.188230 22.662483 -4.151909 -2.730112 
102.023758 74.523376 87.340248 145.065544 11.665047 91.756502 6.122289 -0.445090 24.243728 -4.359137 -7.849030 24.403312 -0.981074 10.788737 -14.446524 nan nan nan 7.836710 10.688928 -31.150575 7.701234 -12.122357 27.379963 2.089575 -5.037177 -1.135788 nan nan nan 2.691209 -11.112849 9.333955 9.869999 -2.852636 1.441964 6.550764 -4.679951 -4.386618 2.786777 -2.236548 -3.662894 3.092206 0.870569 -2.805022 -19.615026 -2.063553 9.886941 -73.383360 -18.349089 12.678394 48.763440 -51.710545 -35.410998 -1.890630 -17.582353 -34.807389 19.754038 -1.696156 1.980506 56.422158 1.980908 7.161259 -19.367717 10.147146 -0.086489 22.431353 -4.780846 -2.306867 
102.944885 75.586136 87.146996 144.501587 11.294478 90.808896 6.362178 0.038325 22.029373 -5.657869 -6.971270 30.728380 -0.922155 9.326065 -12.314163 nan nan nan 8.438178 9.974132 -30.081128 7.569960 -11.476287 29.420463 0.858792 -4.650032 -2.757315 nan nan nan 2.985705 -10.565929 10.831889 9.482127 -2.563458 0.336154 6.091946 -4.328432 -3.888253 1.721227 -2.142230 -4.134134 3.017011 0.753527 -3.168126 -19.425111 -2.040841 9.544677 -72.770912 -17.738690 11.718600 41.038994 -49.878392 -30.313899 -2.873685 -16.667032 -36.600072 19.437569 -1.528534 1.784985 56.822148 2.082481 7.105863 -18.881724 10.606659 0.273614 21.918045 -5.013135 -2.642874 
103.851234 76.560387 86.951691 143.806527 10.831251 89.900519 6.728998 0.759791 19.414949 -6.867484 -6.023642 37.378177 -0.994476 7.359031 -9.674615 nan nan nan 8.988810 9.318816 -29.118542 7.064357 -10.988979 31.499095 -0.248033 -3.886485 -4.162217 nan nan nan 3.105705 -9.945349 12.318490 8.978840 -2.236237 -0.696865 5.739229 -3.927908 -3.453359 0.692738 -1.973281 -4.411566 3.081903 0.740084 -3.682766 -19.410265 -2.755834 9.200492 -72.026312 -16.713567 10.934820 35.871109 -47.683107 -27.146753 -3.791154 -14.754533 -35.438076 19.139219 -0.838695 1.826294 57.286725 1.893771 6.648698 -18.553593 11.371985 0.351620 21.666427 -5.311912 -2.920838 
